<svg width="22" height="22" node-id="1" sillyvg="true" template-height="907" template-width="912" version="1.1" viewBox="0 0 912 907"  xmlns="http://www.w3.org/2000/svg" xmlns:xlink="http://www.w3.org/1999/xlink">
<defs node-id="16"><clipPath id="mask-2" node-id="9"><path d="M 152.00 286.00 L 388.95 286.00 L 388.95 440.25 L 152.00 440.25 Z" fill="#000000" fill-rule="evenodd" node-id="21" stroke="none" target-height="154.25073" target-width="236.9516" target-x="152" target-y="286"/></clipPath></defs><g node-id="32"><g node-id="33"><g clip-path="url(#mask-2)" group-id="1,2" node-id="30"><path d="M 333.47 329.30 L 331.42 329.34 L 328.96 324.61 L 326.22 320.11 L 323.19 315.83 L 319.85 311.76 L 316.24 307.93 L 312.39 304.37 L 308.31 301.09 L 303.97 298.06 L 299.44 295.35 L 294.73 292.97 L 289.82 290.91 L 284.70 289.17 L 279.49 287.81 L 274.14 286.82 L 268.63 286.22 L 262.95 286.00 L 257.15 286.23 L 251.52 286.86 L 246.07 287.88 L 240.76 289.30 L 235.55 291.12 L 230.55 293.26 L 225.76 295.74 L 221.17 298.56 L 216.78 301.71 L 212.65 305.12 L 208.78 308.82 L 205.16 312.80 L 201.83 317.02 L 198.82 321.46 L 196.11 326.12 L 193.72 331.02 L 189.26 332.37 L 185.01 334.04 L 180.96 336.03 L 177.08 338.36 L 173.40 341.00 L 169.98 343.89 L 166.80 347.05 L 163.87 350.48 L 161.22 354.14 L 158.89 357.98 L 156.86 362.04 L 155.15 366.31 L 153.80 370.70 L 152.82 375.22 L 152.22 379.91 L 152.00 384.77 L 152.34 390.88 L 153.28 396.71 L 154.83 402.31 L 156.95 407.71 L 159.57 412.78 L 162.70 417.54 L 166.30 421.95 L 170.30 425.95 L 174.71 429.55 L 179.47 432.68 L 184.54 435.30 L 189.94 437.42 L 195.54 438.97 L 201.37 439.91 L 207.48 440.25 L 333.47 440.25 L 339.58 439.91 L 345.41 438.97 L 351.01 437.42 L 356.41 435.30 L 361.48 432.68 L 366.24 429.55 L 370.65 425.95 L 374.65 421.95 L 378.25 417.54 L 381.38 412.78 L 384.00 407.71 L 386.12 402.31 L 387.67 396.71 L 388.61 390.88 L 388.95 384.77 L 388.61 378.67 L 387.67 372.84 L 386.12 367.24 L 384.00 361.84 L 381.38 356.77 L 378.25 352.01 L 374.65 347.60 L 370.65 343.60 L 366.24 340.00 L 361.48 336.87 L 356.41 334.25 L 351.01 332.13 L 345.41 330.58 L 339.58 329.64 L 333.47 329.30" fill="#d7e0ff" fill-rule="evenodd" group-id="1,2,3" id="Fill-1" node-id="12" stroke="none" target-height="154.251" target-width="236.952" target-x="151.9996" target-y="285.99973"/></g></g><path d="M 571.72 380.71 L 567.26 380.80 L 563.07 372.58 L 558.48 364.66 L 553.46 357.05 L 548.03 349.72 L 542.19 342.70 L 536.01 336.04 L 529.47 329.73 L 522.56 323.77 L 515.33 318.20 L 507.82 313.05 L 500.01 308.31 L 491.87 303.97 L 483.53 300.11 L 474.94 296.71 L 466.11 293.79 L 457.00 291.34 L 447.80 289.43 L 438.40 288.05 L 428.79 287.20 L 418.94 286.90 L 408.89 287.22 L 399.07 288.10 L 389.48 289.54 L 380.10 291.53 L 370.81 294.09 L 361.81 297.13 L 353.07 300.66 L 344.59 304.69 L 336.33 309.20 L 328.41 314.14 L 320.80 319.49 L 313.50 325.28 L 306.54 331.48 L 299.96 338.03 L 293.76 344.94 L 287.93 352.23 L 282.52 359.83 L 277.56 367.72 L 273.04 375.92 L 268.96 384.43 L 261.22 386.70 L 253.76 389.42 L 246.56 392.60 L 239.60 396.25 L 232.89 400.36 L 226.51 404.84 L 220.45 409.72 L 214.70 415.00 L 209.30 420.64 L 204.29 426.59 L 199.67 432.87 L 195.43 439.49 L 191.63 446.35 L 188.30 453.47 L 185.42 460.85 L 182.99 468.52 L 181.09 476.29 L 179.72 484.27 L 178.88 492.46 L 178.58 500.89 L 178.87 509.21 L 179.69 517.29 L 181.02 525.16 L 182.87 532.84 L 185.23 540.41 L 188.04 547.71 L 191.29 554.75 L 194.99 561.55 L 199.12 568.11 L 203.63 574.34 L 208.51 580.26 L 213.78 585.87 L 219.39 591.14 L 225.31 596.03 L 231.54 600.53 L 238.10 604.67 L 244.90 608.36 L 251.94 611.61 L 259.24 614.42 L 266.81 616.78 L 274.49 618.63 L 282.36 619.97 L 290.44 620.78 L 298.76 621.07 L 571.72 621.07 L 580.04 620.78 L 588.12 619.97 L 595.99 618.63 L 603.67 616.78 L 611.25 614.42 L 618.54 611.61 L 625.58 608.36 L 632.38 604.67 L 638.94 600.53 L 645.17 596.03 L 651.09 591.14 L 656.71 585.87 L 661.98 580.26 L 666.86 574.34 L 671.36 568.11 L 675.50 561.55 L 679.20 554.75 L 682.45 547.71 L 685.25 540.41 L 687.61 532.84 L 689.46 525.16 L 690.80 517.29 L 691.62 509.21 L 691.91 500.89 L 691.62 492.58 L 690.80 484.49 L 689.46 476.62 L 687.61 468.94 L 685.25 461.37 L 682.45 454.07 L 679.20 447.03 L 675.50 440.23 L 671.36 433.67 L 666.86 427.44 L 661.98 421.52 L 656.71 415.91 L 651.09 410.64 L 645.17 405.76 L 638.94 401.25 L 632.38 397.12 L 625.58 393.42 L 618.54 390.17 L 611.25 387.36 L 603.67 385.00 L 595.99 383.15 L 588.12 381.82 L 580.04 381.00 L 571.72 380.71" fill="#9797ff" fill-rule="evenodd" group-id="1" id="Fill-3" node-id="13" stroke="none" target-height="334.16998" target-width="513.33" target-x="178.5777" target-y="286.9049"/><path d="M 690.86 480.89 L 688.30 480.94 L 685.25 475.06 L 681.84 469.46 L 678.06 464.14 L 673.91 459.07 L 669.42 454.30 L 664.64 449.88 L 659.55 445.79 L 654.15 442.03 L 648.52 438.65 L 642.65 435.69 L 636.54 433.13 L 630.17 430.96 L 623.70 429.26 L 617.04 428.04 L 610.19 427.29 L 603.12 427.02 L 595.89 427.30 L 588.90 428.08 L 582.11 429.36 L 575.51 431.13 L 569.02 433.38 L 562.81 436.06 L 556.85 439.14 L 551.13 442.65 L 545.67 446.56 L 540.54 450.81 L 535.72 455.41 L 531.21 460.36 L 527.07 465.61 L 523.32 471.13 L 519.96 476.94 L 516.98 483.03 L 511.43 484.71 L 506.15 486.79 L 501.10 489.27 L 496.28 492.17 L 491.70 495.45 L 487.44 499.05 L 483.49 502.98 L 479.83 507.25 L 476.54 511.80 L 473.64 516.58 L 471.12 521.63 L 468.98 526.95 L 467.30 532.40 L 466.09 538.03 L 465.34 543.86 L 465.07 549.92 L 465.31 555.65 L 465.98 561.18 L 467.08 566.54 L 468.59 571.73 L 470.51 576.82 L 472.79 581.66 L 475.41 586.28 L 478.39 590.68 L 481.70 594.85 L 485.29 598.72 L 489.16 602.31 L 493.33 605.62 L 497.73 608.60 L 502.35 611.23 L 507.19 613.50 L 512.28 615.42 L 517.47 616.93 L 522.83 618.03 L 528.36 618.70 L 534.09 618.94 L 690.86 618.94 L 696.60 618.70 L 702.13 618.03 L 707.49 616.93 L 712.68 615.42 L 717.77 613.50 L 722.61 611.23 L 727.22 608.60 L 731.63 605.62 L 735.80 602.31 L 739.67 598.72 L 743.26 594.85 L 746.57 590.68 L 749.55 586.28 L 752.17 581.66 L 754.44 576.82 L 756.37 571.73 L 757.88 566.54 L 758.97 561.18 L 759.65 555.65 L 759.89 549.92 L 759.65 544.18 L 758.97 538.65 L 757.88 533.30 L 756.37 528.10 L 754.44 523.02 L 752.17 518.17 L 749.55 513.56 L 746.57 509.15 L 743.26 504.98 L 739.67 501.11 L 735.80 497.52 L 731.63 494.21 L 727.22 491.23 L 722.61 488.61 L 717.77 486.34 L 712.68 484.41 L 707.49 482.90 L 702.13 481.81 L 696.60 481.13 L 690.86 480.89" fill="#5558df" fill-rule="evenodd" group-id="1" id="Fill-5" node-id="14" stroke="none" target-height="191.92401" target-width="294.819" target-x="465.0693" target-y="427.01752"/></g></svg>