<svg height="33" node-id="1" sillyvg="true" template-height="1024" template-width="1024" version="1.1" viewBox="0 0 1024 1024" width="33" xmlns="http://www.w3.org/2000/svg" xmlns:xlink="http://www.w3.org/1999/xlink"><defs node-id="72"></defs><path d="M 0.00 0.00 L 1024.00 0.00 L 1024.00 1024.00 L 0.00 1024.00 Z" fill="#ffffff" fill-rule="nonzero" node-id="74" stroke="none" target-height="1024" target-width="1024" target-x="0" target-y="0"/><path d="M 469.01 314.48 C 478.84 321.42 488.23 332.59 501.35 331.72 C 511.41 328.45 518.64 319.96 527.10 314.02 C 526.43 320.46 525.73 326.99 525.00 333.52 C 523.89 341.72 521.97 349.94 522.55 358.34 C 524.62 362.71 529.99 359.77 533.60 360.14 C 532.99 383.27 550.43 400.70 568.88 411.76 C 582.71 419.63 596.03 428.29 608.04 438.73 C 625.74 454.18 651.61 459.29 664.09 480.63 C 659.92 500.37 648.14 517.05 635.34 532.18 C 616.91 552.51 597.66 572.22 581.48 594.47 C 580.63 589.57 579.76 584.73 578.89 579.95 C 570.92 596.16 567.75 614.09 561.51 630.94 C 551.18 664.53 534.21 696.58 531.68 732.15 C 538.21 721.80 544.39 711.19 552.03 701.60 C 549.78 725.53 557.72 752.01 580.05 764.11 C 579.47 766.88 578.89 769.65 578.30 772.48 C 539.14 791.43 493.10 790.44 451.90 779.13 C 442.98 777.12 435.80 771.23 429.82 764.61 C 444.40 754.84 449.07 737.34 451.46 720.99 C 454.93 732.80 457.53 744.87 461.40 756.59 C 469.63 745.16 469.57 730.52 468.72 717.11 C 466.19 684.60 454.17 652.87 434.32 626.95 C 413.88 600.03 389.64 576.21 369.82 548.80 C 359.93 535.83 353.63 520.64 349.61 504.92 C 349.00 490.31 351.24 475.82 351.97 461.27 C 359.93 452.20 366.99 442.17 376.61 434.76 C 398.36 416.86 429.80 414.61 448.40 392.34 C 455.98 383.06 459.01 371.31 460.70 359.77 C 465.31 358.72 469.92 357.73 474.47 356.50 C 474.50 354.95 474.56 351.81 474.56 350.26 C 473.16 338.25 470.71 326.41 469.01 314.48 Z M 473.30 389.95 C 475.95 399.71 485.29 404.99 494.35 407.82 C 496.22 425.31 474.56 439.40 459.57 429.86 C 452.60 426.37 451.87 418.23 450.18 411.58 C 444.87 418.87 447.82 429.40 455.22 434.09 C 468.69 442.84 488.06 437.94 496.42 424.38 C 503.89 437.39 521.91 443.01 535.12 435.52 C 542.93 431.61 547.51 422.14 544.71 413.71 C 540.22 421.82 535.76 432.87 524.80 432.98 C 511.53 435.43 497.80 422.63 503.07 409.10 C 509.93 403.42 519.55 399.39 521.73 389.92 C 505.78 386.21 489.28 386.53 473.30 389.95 Z" fill="#fdfdfd" fill-rule="nonzero" node-id="76" stroke="none" target-height="477.41803" target-width="315.091" target-x="348.997" target-y="314.016"/><path d="M 417.81 354.02 C 420.32 354.05 425.36 354.14 427.90 354.17 C 427.32 354.95 426.15 356.53 425.57 357.29 C 422.71 363.59 416.56 359.59 417.81 354.02 Z" fill="#fdfdfd" fill-rule="nonzero" node-id="78" stroke="none" target-height="9.563995" target-width="11.34198" target-x="416.558" target-y="354.022"/><path d="M 397.63 884.19 C 402.36 880.81 409.50 886.90 402.18 889.79 C 397.43 894.28 390.58 886.70 397.63 884.19 Z" fill="#fdfdfd" fill-rule="nonzero" node-id="80" stroke="none" target-height="13.471008" target-width="18.924011" target-x="390.577" target-y="880.807"/><path d="M 598.48 891.92 C 603.50 890.17 605.13 891.62 603.41 896.29 C 598.48 897.92 596.85 896.47 598.48 891.92 Z" fill="#fdfdfd" fill-rule="nonzero" node-id="82" stroke="none" target-height="7.7559814" target-width="8.281006" target-x="596.847" target-y="890.167"/><path d="M 237.58 152.24 C 244.55 149.41 245.22 141.13 247.96 135.16 C 252.51 139.32 254.20 145.59 258.40 150.03 C 263.47 153.61 269.31 156.09 273.86 160.41 C 269.01 162.97 263.77 165.01 259.45 168.54 C 254.09 173.32 252.34 180.64 249.42 187.00 C 245.63 180.61 243.97 172.39 237.26 168.28 C 232.42 165.16 226.76 163.70 221.37 161.87 C 224.14 155.51 232.33 155.60 237.58 152.24 Z M 249.10 148.19 C 246.30 154.98 239.45 157.43 232.92 159.33 C 238.92 162.83 244.55 167.00 248.66 172.71 C 253.06 167.03 259.16 163.18 265.51 160.03 C 259.27 157.17 253.47 153.50 249.10 148.19 Z" fill="#351a22" fill-rule="nonzero" node-id="84" stroke="none" target-height="51.843994" target-width="52.486008" target-x="221.369" target-y="135.156"/><path d="M 616.67 886.55 C 608.45 883.17 619.47 877.74 621.51 873.89 C 621.69 875.47 622.04 878.59 622.22 880.13 C 625.19 880.98 628.11 882.29 630.15 884.77 C 628.02 884.89 623.76 885.12 621.63 885.24 C 621.66 887.92 621.69 893.23 621.72 895.91 C 623.50 896.32 627.03 897.13 628.80 897.54 C 621.69 907.57 614.52 893.90 616.67 886.55 Z" fill="#351a22" fill-rule="nonzero" node-id="86" stroke="none" target-height="33.678955" target-width="21.69397" target-x="608.452" target-y="873.895"/><path d="M 503.31 881.13 C 509.46 878.30 516.51 879.99 522.96 880.98 C 522.38 887.25 521.97 893.58 520.89 899.88 C 519.84 899.32 517.77 898.21 516.72 897.63 C 516.51 893.05 517.42 888.50 517.10 883.96 C 514.56 883.93 509.55 883.84 507.04 883.81 C 505.11 889.15 507.74 893.49 510.71 897.81 C 509.40 903.43 500.48 896.67 501.38 892.62 C 500.88 888.53 501.53 884.71 503.31 881.13 Z" fill="#341922" fill-rule="nonzero" node-id="88" stroke="none" target-height="25.13501" target-width="22.481018" target-x="500.477" target-y="878.298"/><path d="M 592.82 884.51 C 596.12 878.56 603.23 881.62 608.48 881.65 C 610.17 889.73 610.99 899.88 600.70 901.77 C 594.87 900.25 591.77 895.76 592.33 889.85 C 596.03 889.26 599.76 888.74 603.50 888.33 C 603.50 887.19 603.47 884.92 603.47 883.81 C 600.81 883.98 595.51 884.33 592.82 884.51 Z M 598.48 891.92 C 596.85 896.46 598.48 897.92 603.41 896.29 C 605.13 891.62 603.50 890.17 598.48 891.92 Z" fill="#341922" fill-rule="nonzero" node-id="90" stroke="none" target-height="23.210022" target-width="19.215027" target-x="591.774" target-y="878.561"/><path d="M 480.21 394.46 C 491.50 393.94 502.81 393.91 514.09 394.64 C 503.71 398.67 490.07 400.30 480.21 394.46 Z" fill="#fbc6d7" fill-rule="nonzero" node-id="92" stroke="none" target-height="6.38501" target-width="33.882996" target-x="480.211" target-y="393.912"/><path d="M 393.52 907.02 C 390.61 898.80 401.02 902.00 405.45 901.54 C 406.99 908.48 398.16 910.05 393.52 907.02 Z" fill="#fcfcfc" fill-rule="nonzero" node-id="94" stroke="none" target-height="11.255005" target-width="16.387024" target-x="390.606" target-y="898.797"/><path d="M 768.74 170.50 C 776.29 164.66 775.62 153.76 781.45 147.17 C 787.49 150.78 785.53 160.70 790.90 165.77 C 798.98 179.27 816.41 178.95 827.99 187.20 C 813.29 191.43 793.64 193.36 787.81 210.21 C 784.69 214.50 785.85 223.57 779.32 224.15 C 774.63 216.01 773.23 205.75 765.74 199.42 C 757.83 192.72 747.45 190.41 738.18 186.30 C 747.31 179.10 760.78 179.74 768.74 170.50 Z M 752.06 185.78 C 757.60 188.37 763.37 190.62 768.42 194.17 C 774.66 198.81 777.14 206.51 780.08 213.39 C 783.84 206.92 787.05 199.68 793.26 195.16 C 799.56 190.47 807.14 188.17 814.37 185.40 C 799.62 183.44 787.17 173.62 781.42 160.00 C 776.03 172.51 765.53 182.60 752.06 185.78 Z" fill="#311922" fill-rule="nonzero" node-id="96" stroke="none" target-height="76.979996" target-width="89.80902" target-x="738.18" target-y="147.169"/><path d="M 747.48 546.50 C 755.44 544.25 763.26 540.32 764.34 531.16 C 768.01 538.74 774.48 543.99 782.62 546.06 C 775.74 551.49 768.15 556.21 764.31 564.58 C 761.71 556.06 755.70 549.71 747.48 546.50 Z M 757.77 546.76 C 759.76 548.86 761.71 550.99 763.69 553.18 C 766.99 551.31 770.28 549.47 773.61 547.72 C 770.72 545.36 767.83 543.09 764.95 540.84 C 763.17 542.33 759.58 545.27 757.77 546.76 Z" fill="#311922" fill-rule="nonzero" node-id="98" stroke="none" target-height="33.416016" target-width="35.136963" target-x="747.481" target-y="531.162"/><path d="M 415.22 881.51 C 419.59 881.80 430.93 876.72 430.18 884.39 C 426.97 884.80 423.73 885.15 420.52 885.50 C 420.12 890.75 421.25 896.99 416.38 900.81 C 415.45 894.39 415.45 887.92 415.22 881.51 Z" fill="#311922" fill-rule="nonzero" node-id="100" stroke="none" target-height="24.085022" target-width="15.716003" target-x="415.217" target-y="876.724"/><path d="M 390.23 883.31 C 396.15 879.55 403.12 878.97 409.97 879.14 C 409.70 883.37 408.71 887.40 407.02 891.30 C 403.52 893.99 398.74 893.64 394.75 895.27 C 399.76 899.23 411.95 896.76 410.81 906.03 C 406.61 912.53 397.08 913.46 390.61 910.08 C 388.07 901.54 390.61 892.18 390.23 883.31 Z M 397.63 884.19 C 390.58 886.70 397.43 894.28 402.18 889.79 C 409.50 886.90 402.36 880.81 397.63 884.19 Z M 393.52 907.02 C 398.16 910.05 406.99 908.48 405.45 901.54 C 401.02 902.00 390.61 898.80 393.52 907.02 Z" fill="#311922" fill-rule="nonzero" node-id="102" stroke="none" target-height="34.494995" target-width="23.881012" target-x="388.069" target-y="878.969"/><path d="M 489.72 885.36 C 486.80 883.75 483.91 882.12 481.09 880.46 C 496.39 873.52 497.12 893.08 491.00 901.01 C 489.89 895.82 489.77 890.54 489.72 885.36 Z" fill="#311922" fill-rule="nonzero" node-id="104" stroke="none" target-height="27.49701" target-width="16.036987" target-x="481.086" target-y="873.516"/><path d="M 524.30 879.90 C 532.41 879.41 532.67 888.53 537.51 892.88 C 539.58 887.51 539.46 880.02 546.69 878.97 C 543.43 888.88 540.77 899.26 535.67 908.45 C 533.08 912.94 527.68 912.97 524.48 909.18 C 529.02 908.68 534.74 906.38 533.66 900.72 C 533.13 892.88 527.51 886.73 524.30 879.90 Z" fill="#321922" fill-rule="nonzero" node-id="106" stroke="none" target-height="33.999023" target-width="22.393982" target-x="524.3" target-y="878.969"/><path d="M 352.32 383.94 C 358.10 389.60 364.33 395.05 372.56 396.62 C 395.36 411.00 427.20 406.94 445.92 387.64 C 446.53 388.81 447.79 391.14 448.40 392.34 C 429.80 414.61 398.36 416.86 376.61 434.76 C 366.99 442.17 359.93 452.20 351.97 461.27 C 336.55 477.31 327.39 501.60 335.23 523.38 C 339.02 533.96 344.59 543.79 350.75 553.18 C 340.37 554.26 332.67 546.56 324.50 541.54 C 291.03 522.09 270.04 485.44 263.82 447.88 C 275.98 443.89 290.07 445.49 300.86 437.88 C 288.26 437.97 275.87 440.33 263.47 442.31 C 262.22 433.25 261.73 424.09 262.57 414.99 C 276.62 415.72 292.34 421.61 305.40 414.21 C 307.12 415.08 308.79 416.04 310.45 417.09 C 323.57 427.74 343.87 433.25 358.42 422.31 C 364.54 418.06 361.33 410.79 359.90 405.05 C 357.66 399.77 355.03 394.73 352.41 389.68 C 352.38 388.25 352.35 385.37 352.32 383.94 Z" fill="#513141" fill-rule="nonzero" node-id="108" stroke="none" target-height="170.31699" target-width="186.67499" target-x="261.725" target-y="383.939"/><path d="M 757.77 546.76 C 759.58 545.27 763.17 542.33 764.95 540.84 C 767.83 543.09 770.72 545.36 773.61 547.72 C 770.28 549.47 766.99 551.31 763.69 553.18 C 761.71 550.99 759.76 548.86 757.77 546.76 Z" fill="#f7b253" fill-rule="nonzero" node-id="110" stroke="none" target-height="12.333984" target-width="15.833984" target-x="757.774" target-y="540.843"/><path d="M 569.85 353.38 C 572.21 349.39 580.31 352.77 576.32 356.97 C 573.90 360.35 566.43 357.49 569.85 353.38 Z" fill="#d0b4a7" fill-rule="nonzero" node-id="112" stroke="none" target-height="10.96402" target-width="13.879028" target-x="566.435" target-y="349.386"/><path d="M 302.98 127.66 C 305.52 118.62 313.42 109.17 323.89 112.79 C 355.70 123.90 381.25 146.91 407.63 167.03 C 445.51 155.10 485.63 153.44 525.03 155.39 C 549.93 156.44 574.28 162.27 597.69 170.58 C 619.15 149.36 643.09 129.94 670.38 116.73 C 677.24 113.14 687.27 110.43 692.52 118.04 C 701.97 133.38 705.49 151.51 708.52 169.07 C 715.38 210.71 708.70 252.81 705.67 294.36 C 716.16 319.47 734.53 340.87 742.14 367.35 C 756.90 364.75 771.07 359.10 786.20 358.72 C 784.80 362.27 782.27 364.46 778.59 365.22 C 767.13 368.25 755.50 370.76 744.27 374.70 C 747.04 385.86 748.62 397.26 749.32 408.75 C 764.01 407.50 778.80 407.15 793.47 408.93 C 793.12 410.01 792.45 412.22 792.10 413.33 C 778.13 414.03 764.10 413.16 750.11 413.51 C 749.70 423.80 748.71 434.12 747.34 444.38 C 760.63 448.58 775.79 448.76 787.60 456.51 C 773.61 458.85 760.14 451.47 746.29 450.01 C 740.05 479.78 731.30 511.33 707.77 532.33 C 698.76 538.60 701.32 550.23 701.26 559.65 C 701.35 577.85 712.46 593.12 721.38 608.14 C 745.99 646.34 761.25 692.41 756.20 738.16 C 753.23 752.94 749.84 767.67 744.65 781.87 C 751.62 782.69 758.59 783.47 765.53 784.52 C 777.08 786.88 789.06 789.33 799.33 795.40 C 805.95 800.33 799.09 807.73 793.29 809.19 C 764.34 819.63 733.19 821.90 702.81 825.26 C 665.89 827.77 628.98 831.59 591.92 829.98 C 537.68 832.08 483.24 834.65 429.01 830.68 C 411.57 826.89 393.87 831.00 376.29 829.22 C 325.99 824.15 274.15 825.46 225.71 809.02 C 220.96 806.74 211.25 804.06 214.31 797.09 C 221.98 790.91 231.78 788.08 241.22 785.95 C 246.50 784.90 251.84 784.09 257.15 783.24 C 255.95 777.03 254.75 770.82 253.44 764.70 C 246.79 730.73 247.09 695.01 257.64 661.85 C 263.91 642.37 271.23 622.98 282.31 605.69 C 287.44 596.71 293.16 587.64 295.05 577.35 C 296.28 565.72 295.75 554.02 295.31 542.39 C 284.35 531.72 272.98 521.07 265.60 507.46 C 256.01 489.64 248.92 470.39 245.04 450.54 C 230.61 452.38 216.64 456.63 202.18 458.26 C 203.96 452.61 209.82 452.23 214.60 451.06 C 224.25 448.96 233.94 446.95 243.56 444.62 C 241.98 434.65 241.20 424.56 241.25 414.50 C 226.91 414.06 212.56 414.91 198.25 414.00 C 197.69 412.87 196.55 410.65 196.00 409.54 C 211.13 408.05 226.35 408.61 241.55 408.67 C 242.97 397.35 245.13 386.13 247.52 375.02 C 233.59 370.50 219.21 367.52 205.33 362.83 C 204.72 359.45 206.18 358.19 209.71 359.04 C 223.23 361.28 236.56 364.87 249.59 369.16 C 259.71 344.46 274.18 322.01 287.47 298.94 C 295.49 287.19 290.80 272.76 290.27 259.72 C 285.05 215.49 288.93 170.00 302.98 127.66 Z M 321.41 128.65 C 314.01 139.76 311.76 153.21 308.96 166.03 C 303.27 197.73 302.66 230.36 307.21 262.23 C 308.38 269.08 310.27 276.40 307.36 283.14 C 299.49 303.84 291.26 324.63 279.89 343.76 C 274.44 353.00 270.68 363.09 266.48 372.98 C 276.60 377.44 286.77 381.87 297.42 384.96 C 302.31 386.86 309.25 387.09 310.56 393.33 C 295.14 391.93 280.82 385.43 265.72 382.37 C 263.42 391.32 263.33 400.59 263.42 409.80 C 277.47 410.44 291.76 410.53 305.40 414.21 C 292.34 421.61 276.62 415.72 262.57 414.99 C 261.72 424.09 262.22 433.25 263.47 442.31 C 275.87 440.33 288.26 437.97 300.86 437.88 C 290.07 445.49 275.98 443.89 263.82 447.88 C 270.03 485.44 291.03 522.09 324.50 541.54 C 332.67 546.56 340.37 554.26 350.75 553.18 C 372.76 585.81 403.73 610.82 428.43 641.21 C 446.56 663.40 452.95 692.88 451.46 720.99 C 449.07 737.35 444.40 754.84 429.82 764.61 C 427.32 765.51 424.84 766.50 422.39 767.52 C 426.79 783.12 426.36 799.95 420.29 815.08 C 474.47 819.11 529.14 819.92 583.17 813.45 C 576.76 800.82 576.29 786.24 578.30 772.48 C 578.88 769.65 579.47 766.88 580.05 764.11 C 557.72 752.01 549.78 725.53 552.03 701.60 C 558.04 676.26 567.05 650.63 584.22 630.45 C 604.20 605.14 627.23 579.83 634.67 547.52 C 633.97 564.84 625.10 580.12 618.48 595.69 C 647.03 572.77 676.57 540.32 671.38 500.78 C 672.49 500.55 674.64 500.11 675.72 499.90 C 677.24 515.97 671.96 531.19 669.01 546.73 C 687.59 533.29 705.35 517.37 715.70 496.55 C 723.11 480.95 727.30 463.95 729.35 446.89 C 718.56 443.83 705.49 445.76 696.54 438.15 C 707.80 437.97 718.96 439.69 730.10 441.26 C 730.72 432.58 730.80 423.89 730.69 415.23 C 716.19 413.71 701.91 417.94 687.44 416.60 C 700.36 408.46 716.84 412.40 731.04 408.02 C 729.08 398.61 727.36 389.19 725.85 379.71 C 715.47 382.51 705.20 385.72 694.94 389.01 C 689.80 390.35 683.97 392.86 679.16 389.33 C 694.03 382.25 710.13 378.37 725.47 372.57 C 721.44 355.42 712.49 340.20 705.40 324.28 L 704.33 324.40 C 698.79 307.11 692.66 290.05 688.81 272.32 C 696.19 230.59 699.81 186.30 685.52 145.59 C 682.72 140.49 680.82 131.63 673.62 132.01 C 659.13 135.39 648.14 146.32 636.82 155.30 C 626.44 164.69 615.25 173.30 605.74 183.62 C 589.09 181.26 573.72 173.79 557.07 171.46 C 504.33 162.48 449.07 164.63 398.13 181.75 C 378.39 163.41 357.69 145.74 333.95 132.79 L 334.56 131.77 C 330.16 130.69 325.79 129.67 321.41 128.65 Z M 657.35 581.17 C 643.03 591.00 629.62 602.02 616.65 613.59 C 614.17 615.63 612.86 618.41 612.74 621.88 C 597.66 631.47 583.78 644.85 577.72 662.06 C 571.71 677.95 566.11 694.31 564.74 711.36 C 563.37 725.91 568.85 741.08 580.08 750.67 C 581.22 744.05 582.85 737.58 585.12 731.31 C 587.37 738.48 588.86 746.00 592.15 752.86 C 600.64 755.71 609.76 749.39 614.87 742.94 C 631.90 714.69 634.17 678.79 657.24 653.98 C 660.50 649.25 666.04 647.77 671.35 646.87 C 666.04 658.09 659.01 668.44 654.14 679.90 C 648.52 692.50 645.86 706.14 640.32 718.80 L 640.79 719.18 C 638.02 728.48 635.66 738.19 630.26 746.44 C 623.00 757.20 611.13 764.84 598.13 766.18 C 595.04 766.36 592.97 767.99 591.92 771.14 C 589.70 789.65 593.14 815.72 614.90 820.62 C 614.87 811.23 611.16 800.53 616.47 792.05 C 618.54 800.44 618.83 809.54 623.03 817.33 C 625.68 819.81 633.62 819.89 633.64 814.94 C 635.69 806.77 632.42 796.30 638.87 790.00 C 639.51 799.83 639.86 809.72 641.26 819.51 C 645.69 818.14 651.35 818.23 654.00 813.74 C 660.33 804.35 662.92 793.12 666.54 782.60 C 671.78 765.31 679.19 748.77 686.71 732.42 C 712.20 715.65 728.82 683.92 724.01 653.25 C 721.73 638.32 716.98 621.90 705.29 611.70 C 701.00 599.89 696.07 588.28 693.07 576.10 C 692.81 566.62 692.08 557.20 691.18 547.84 C 678.58 557.64 670.85 572.36 657.35 581.17 Z M 306.60 551.43 C 305.23 562.13 304.97 573.03 306.92 583.74 C 305.75 587.06 304.68 590.53 303.98 594.06 C 300.59 597.00 297.27 600.21 295.34 604.38 C 287.50 619.86 281.64 636.34 277.85 653.28 C 268.43 682.99 286.83 717.95 315.49 729.12 C 317.21 731.42 319.05 733.64 321.03 735.83 C 332.11 757.00 336.34 780.76 342.90 803.53 C 344.97 811.85 352.23 817.68 360.78 818.00 C 361.77 808.08 361.33 798.11 362.06 788.20 C 367.86 797.00 367.07 808.08 369.20 818.09 C 372.94 817.41 378.88 820.21 380.63 815.46 C 382.68 806.80 382.70 797.79 383.49 788.96 C 386.79 798.81 388.27 809.13 389.06 819.51 C 393.81 817.88 399.62 817.71 402.88 813.39 C 411.89 801.61 411.60 785.87 409.79 771.90 C 403.20 770.35 396.67 768.69 390.20 766.79 C 374.95 756.59 368.18 738.69 362.38 722.12 L 363.17 721.60 C 358.36 708.24 353.46 694.89 347.48 682.03 C 342.93 672.14 336.46 663.25 332.67 653.05 C 340.28 655.29 346.23 660.80 350.98 666.98 C 364.48 684.68 370.69 706.32 378.30 726.90 C 384.05 738.98 390.63 755.10 405.97 756.47 C 406.03 748.10 406.06 739.79 406.38 731.48 C 411.28 739.88 414.78 748.95 417.96 758.13 C 428.54 755.10 435.71 745.25 437.76 734.75 C 441.05 719.41 439.42 703.49 436.91 688.18 C 432.10 660.45 413.44 636.89 391.07 620.74 C 392.12 618.00 393.20 615.32 394.28 612.69 C 380.40 594.00 357.01 587.09 338.38 574.49 C 327.71 566.82 314.47 562.54 306.60 551.43 Z" fill="#361926" fill-rule="nonzero" node-id="114" stroke="none" target-height="725.473" target-width="609.945" target-x="196" target-y="109.175"/><path d="M 563.81 886.40 C 563.63 874.74 577.54 871.97 586.32 875.88 C 583.67 882.00 575.74 877.28 571.07 880.54 C 568.91 884.48 567.75 890.87 571.80 894.16 C 576.46 896.90 582.03 894.69 587.08 894.89 C 580.78 905.74 561.86 898.77 563.81 886.40 Z" fill="#361926" fill-rule="nonzero" node-id="116" stroke="none" target-height="33.76599" target-width="25.221985" target-x="561.856" target-y="871.971"/><path d="M 321.41 128.65 C 325.79 129.67 330.16 130.69 334.56 131.77 L 333.95 132.79 C 331.62 136.82 329.23 140.87 326.98 145.01 C 319.02 158.42 318.58 174.37 317.04 189.48 C 315.00 210.38 316.31 231.50 319.87 252.20 C 316.72 256.95 313.83 261.91 310.94 266.87 C 309.69 265.29 308.44 263.75 307.21 262.23 C 302.66 230.36 303.28 197.73 308.96 166.03 C 311.76 153.21 314.01 139.76 321.41 128.65 Z" fill="#582c40" fill-rule="nonzero" node-id="118" stroke="none" target-height="138.213" target-width="31.899994" target-x="302.663" target-y="128.653"/><path d="M 636.82 155.31 C 648.14 146.32 659.13 135.39 673.62 132.01 C 680.82 131.63 682.72 140.49 685.52 145.59 C 699.81 186.30 696.19 230.59 688.81 272.32 C 684.38 264.36 679.25 256.87 674.70 249.05 C 685.78 216.60 683.13 180.47 672.54 148.25 C 651.87 157.67 637.41 175.98 620.67 190.70 C 615.92 187.88 610.93 185.48 605.74 183.62 C 615.25 173.30 626.44 164.69 636.82 155.31 Z" fill="#5c3145" fill-rule="nonzero" node-id="120" stroke="none" target-height="140.691" target-width="94.06604" target-x="605.74" target-y="131.628"/><path d="M 326.98 145.01 C 329.23 140.87 331.62 136.82 333.95 132.79 C 357.69 145.74 378.39 163.41 398.13 181.75 C 391.86 184.17 385.77 187.06 379.96 190.44 C 372.15 179.22 360.46 171.78 350.83 162.33 C 343.72 155.48 335.41 150.06 326.98 145.01 Z" fill="#5f3347" fill-rule="nonzero" node-id="122" stroke="none" target-height="57.646988" target-width="71.14801" target-x="326.982" target-y="132.794"/><path d="M 326.98 145.01 C 335.41 150.06 343.72 155.48 350.83 162.33 C 360.46 171.78 372.15 179.22 379.96 190.44 C 355.53 206.07 336.87 229.05 319.87 252.20 C 316.31 231.50 315.00 210.39 317.04 189.48 C 318.58 174.37 319.02 158.42 326.98 145.01 Z" fill="#733553" fill-rule="nonzero" node-id="124" stroke="none" target-height="107.188" target-width="64.966" target-x="314.998" target-y="145.011"/><path d="M 249.10 148.19 C 253.47 153.50 259.27 157.17 265.51 160.03 C 259.16 163.18 253.06 167.03 248.66 172.71 C 244.55 167.00 238.92 162.83 232.91 159.33 C 239.45 157.43 246.30 154.98 249.10 148.19 Z" fill="#deb350" fill-rule="nonzero" node-id="126" stroke="none" target-height="24.522003" target-width="32.60002" target-x="232.915" target-y="148.19"/><path d="M 620.67 190.70 C 637.41 175.98 651.87 157.67 672.54 148.25 C 683.13 180.47 685.78 216.60 674.70 249.05 C 661.40 225.90 642.39 206.10 620.67 190.70 Z" fill="#763756" fill-rule="nonzero" node-id="128" stroke="none" target-height="100.802" target-width="65.112" target-x="620.669" target-y="148.248"/><path d="M 752.06 185.78 C 765.53 182.60 776.03 172.51 781.42 160.00 C 787.17 173.62 799.62 183.44 814.37 185.40 C 807.14 188.17 799.56 190.47 793.26 195.16 C 787.05 199.68 783.84 206.92 780.08 213.39 C 777.14 206.51 774.66 198.81 768.42 194.17 C 763.37 190.62 757.60 188.37 752.06 185.78 Z" fill="#eaac56" fill-rule="nonzero" node-id="130" stroke="none" target-height="53.390015" target-width="62.31299" target-x="752.059" target-y="159.999"/><path d="M 398.13 181.75 C 449.07 164.63 504.33 162.48 557.08 171.46 C 573.72 173.79 589.09 181.26 605.74 183.62 C 610.93 185.48 615.92 187.88 620.67 190.70 C 642.39 206.10 661.40 225.90 674.70 249.05 C 679.25 256.87 684.38 264.36 688.81 272.32 C 692.66 290.05 698.79 307.11 704.33 324.40 C 696.75 324.95 689.16 325.97 681.85 328.16 C 678.05 326.79 674.29 325.48 670.50 324.13 C 669.83 325.97 669.10 327.81 668.40 329.67 C 622.51 341.98 574.19 339.53 528.06 350.76 C 527.01 344.98 525.90 339.27 525.00 333.52 C 525.73 326.99 526.43 320.46 527.10 314.02 C 518.64 319.96 511.41 328.45 501.35 331.72 C 488.23 332.59 478.84 321.42 469.01 314.48 C 470.71 326.41 473.16 338.25 474.56 350.26 C 431.90 339.79 387.60 341.02 344.30 334.95 C 337.48 333.79 330.54 333.61 323.69 334.57 C 330.66 340.70 339.93 341.77 348.68 343.35 C 346.63 345.83 344.59 348.34 342.55 350.90 C 344.94 353.73 347.33 356.59 349.73 359.48 C 346.81 361.46 343.89 363.59 340.95 365.66 C 343.05 366.36 347.25 367.79 349.32 368.49 C 350.48 373.56 351.71 378.69 352.32 383.94 C 352.35 385.37 352.38 388.25 352.41 389.68 C 355.03 394.73 357.66 399.77 359.90 405.05 C 346.90 400.41 332.38 394.85 318.67 399.83 C 311.67 402.72 310.16 410.30 310.45 417.09 C 308.79 416.04 307.12 415.08 305.40 414.21 C 291.76 410.53 277.47 410.44 263.42 409.80 C 263.33 400.59 263.42 391.32 265.72 382.37 C 280.82 385.43 295.14 391.93 310.57 393.33 C 309.25 387.09 302.31 386.86 297.42 384.96 C 286.77 381.87 276.60 377.44 266.48 372.98 C 270.68 363.09 274.44 353.00 279.89 343.76 C 291.26 324.63 299.49 303.84 307.36 283.14 C 310.27 276.40 308.38 269.08 307.21 262.23 C 308.44 263.75 309.69 265.29 310.94 266.87 C 313.83 261.91 316.72 256.95 319.87 252.20 C 336.87 229.05 355.53 206.07 379.96 190.44 C 385.77 187.06 391.86 184.17 398.13 181.75 Z" fill="#543746" fill-rule="nonzero" node-id="132" stroke="none" target-height="254.61499" target-width="440.99902" target-x="263.328" target-y="162.478"/><path d="M 670.50 324.13 C 674.29 325.48 678.05 326.79 681.85 328.16 C 689.16 325.97 696.75 324.95 704.33 324.40 L 705.41 324.28 C 712.49 340.20 721.44 355.42 725.47 372.57 C 710.13 378.37 694.03 382.25 679.16 389.33 C 683.97 392.86 689.81 390.35 694.94 389.01 C 705.20 385.72 715.47 382.51 725.85 379.71 C 727.36 389.19 729.08 398.61 731.04 408.02 C 716.84 412.40 700.36 408.46 687.44 416.60 C 701.91 417.94 716.19 413.71 730.69 415.23 C 730.80 423.89 730.72 432.58 730.10 441.26 C 718.96 439.69 707.80 437.97 696.54 438.15 C 705.49 445.76 718.56 443.83 729.35 446.89 C 727.30 463.95 723.11 480.95 715.70 496.55 C 705.35 517.37 687.59 533.29 669.01 546.73 C 671.96 531.19 677.24 515.97 675.72 499.90 C 674.64 500.11 672.49 500.55 671.38 500.78 C 669.86 493.75 667.41 486.96 664.09 480.63 C 651.61 459.29 625.74 454.18 608.04 438.73 C 596.03 428.29 582.71 419.63 568.88 411.76 C 580.90 403.65 596.21 410.79 608.72 404.52 C 613.23 402.63 615.71 398.11 618.86 394.64 C 624.14 388.93 629.45 383.24 634.02 376.91 C 646.27 370.47 642.54 354.55 637.14 344.66 C 648.20 341.48 661.23 339.76 668.40 329.67 C 669.10 327.81 669.83 325.97 670.50 324.13 Z M 645.66 347.46 C 644.81 351.81 651.43 356.27 655.43 354.93 C 656.36 350.44 649.71 345.74 645.66 347.46 Z M 651.26 400.47 C 647.50 401.38 640.85 402.95 642.25 408.23 C 647.00 422.37 664.32 423.54 676.60 426.98 C 683.39 423.65 681.23 415.20 677.24 410.71 C 668.64 414.32 659.25 417.24 650.59 411.87 C 658.66 406.33 668.49 405.93 677.88 404.85 C 671.67 396.45 660.06 399.39 651.26 400.47 Z M 632.83 413.94 C 631.87 417.85 628.48 423.01 632.30 426.48 C 637.87 433.07 647.00 434.85 655.14 432.84 C 653.04 423.45 640.93 418.38 632.83 413.94 Z" fill="#503242" fill-rule="nonzero" node-id="134" stroke="none" target-height="222.59897" target-width="162.15204" target-x="568.884" target-y="324.134"/><path d="M 528.06 350.76 C 574.19 339.53 622.51 341.98 668.40 329.67 C 661.23 339.76 648.20 341.48 637.14 344.66 C 642.54 354.55 646.27 370.47 634.02 376.91 C 637.32 366.44 636.50 355.33 631.43 345.62 C 625.83 346.38 620.26 347.20 614.69 348.05 C 611.98 348.39 609.27 348.74 606.56 349.09 C 601.77 349.50 596.99 349.79 592.21 350.09 C 595.80 354.63 599.36 359.27 601.66 364.64 C 600.26 375.02 591.39 383.88 580.37 381.69 C 567.34 380.32 563.32 365.39 563.34 354.37 C 561.77 354.69 558.62 355.33 557.04 355.65 C 551.48 356.33 545.94 356.88 540.40 357.49 C 540.45 370.56 542.87 385.43 554.33 393.56 C 572.76 408.32 599.65 407.56 618.86 394.64 C 615.71 398.11 613.24 402.63 608.72 404.52 C 596.21 410.79 580.90 403.65 568.88 411.76 C 550.43 400.70 532.99 383.27 533.60 360.15 C 529.99 359.77 524.62 362.71 522.55 358.34 C 521.97 349.94 523.89 341.72 525.00 333.52 C 525.90 339.27 527.01 344.98 528.06 350.76 Z M 569.85 353.38 C 566.43 357.49 573.90 360.35 576.32 356.97 C 580.31 352.77 572.21 349.39 569.85 353.38 Z" fill="#351e2f" fill-rule="nonzero" node-id="136" stroke="none" target-height="82.08298" target-width="146.43604" target-x="521.967" target-y="329.674"/><path d="M 323.69 334.57 C 330.54 333.61 337.48 333.79 344.30 334.95 C 387.60 341.02 431.89 339.79 474.55 350.26 C 474.55 351.81 474.50 354.95 474.47 356.50 C 469.92 357.73 465.31 358.72 460.70 359.77 C 459.01 371.31 455.98 383.06 448.40 392.34 C 447.79 391.14 446.53 388.81 445.92 387.64 C 451.72 378.22 453.47 367.23 453.06 356.36 C 451.40 356.15 448.05 355.80 446.36 355.60 C 440.23 354.87 434.05 354.25 427.90 354.17 C 425.36 354.14 420.32 354.05 417.81 354.02 C 416.56 359.59 422.71 363.59 425.57 357.29 L 430.96 355.54 C 429.97 360.85 429.07 366.33 427.81 371.66 C 425.31 377.00 421.08 381.17 416.03 384.14 C 401.48 385.95 387.08 372.45 391.57 357.52 C 394.13 354.84 396.90 352.42 399.68 350.03 C 385.82 349.06 372.21 346.27 358.36 345.30 C 356.23 354.34 353.40 363.91 356.23 373.18 C 358.47 382.77 365.85 389.86 372.56 396.62 C 364.33 395.05 358.09 389.60 352.32 383.94 C 351.71 378.69 350.48 373.56 349.32 368.49 C 347.25 367.79 343.05 366.36 340.95 365.66 C 343.89 363.59 346.81 361.46 349.73 359.48 C 347.33 356.59 344.94 353.73 342.55 350.90 C 344.59 348.34 346.63 345.83 348.68 343.35 C 339.93 341.77 330.65 340.70 323.69 334.57 Z" fill="#341824" fill-rule="nonzero" node-id="138" stroke="none" target-height="63.011993" target-width="150.86697" target-x="323.687" target-y="333.611"/><path d="M 358.36 345.30 C 372.21 346.27 385.82 349.06 399.68 350.03 C 396.90 352.42 394.13 354.84 391.57 357.52 C 391.77 355.83 392.21 352.48 392.41 350.79 C 388.07 351.86 380.31 349.12 378.48 354.87 C 374.74 366.33 377.28 380.82 387.46 388.28 C 397.34 397.03 411.98 397.58 423.64 392.34 C 427.67 389.36 431.55 386.24 435.19 382.83 C 439.56 374.17 440.26 364.40 439.13 354.93 C 440.93 355.10 444.55 355.42 446.36 355.60 C 448.05 355.80 451.40 356.15 453.06 356.36 C 453.47 367.23 451.72 378.22 445.92 387.64 C 427.20 406.94 395.36 411.00 372.56 396.62 C 365.85 389.86 358.47 382.77 356.23 373.18 C 353.40 363.91 356.23 354.34 358.36 345.30 Z" fill="#fbfaf5" fill-rule="nonzero" node-id="140" stroke="none" target-height="65.695984" target-width="100.073" target-x="353.4" target-y="345.303"/><path d="M 606.56 349.09 C 609.27 348.74 611.98 348.39 614.69 348.04 C 620.58 362.68 615.80 380.50 602.21 389.07 C 587.95 399.71 565.50 395.22 555.76 380.56 C 553.02 374.38 553.11 367.41 552.12 360.87 C 553.34 359.56 555.79 356.94 557.04 355.65 C 558.62 355.33 561.77 354.69 563.34 354.37 C 563.31 365.39 567.34 380.32 580.37 381.69 C 591.39 383.88 600.26 375.02 601.66 364.64 C 603.23 359.42 604.87 354.23 606.56 349.09 Z" fill="#eca753" fill-rule="nonzero" node-id="142" stroke="none" target-height="51.669983" target-width="68.464966" target-x="552.117" target-y="348.044"/><path d="M 614.69 348.05 C 620.26 347.20 625.83 346.38 631.43 345.62 C 636.50 355.33 637.32 366.44 634.02 376.91 C 629.45 383.24 624.14 388.93 618.86 394.64 C 599.65 407.56 572.76 408.32 554.33 393.56 C 542.87 385.43 540.45 370.56 540.39 357.49 C 545.93 356.88 551.48 356.33 557.04 355.65 C 555.79 356.94 553.34 359.56 552.12 360.88 C 553.11 367.41 553.02 374.38 555.76 380.56 C 565.50 395.22 587.95 399.71 602.21 389.07 C 615.80 380.50 620.58 362.68 614.69 348.05 Z" fill="#fdfdfa" fill-rule="nonzero" node-id="144" stroke="none" target-height="62.692017" target-width="96.92395" target-x="540.395" target-y="345.624"/><path d="M 645.66 347.46 C 649.71 345.74 656.36 350.44 655.43 354.93 C 651.43 356.27 644.81 351.81 645.66 347.46 Z" fill="#331b2a" fill-rule="nonzero" node-id="146" stroke="none" target-height="10.526001" target-width="11.546997" target-x="644.813" target-y="345.741"/><path d="M 592.21 350.08 C 596.99 349.79 601.77 349.50 606.56 349.09 C 604.87 354.23 603.23 359.42 601.66 364.64 C 599.35 359.27 595.80 354.63 592.21 350.08 Z" fill="#eec078" fill-rule="nonzero" node-id="148" stroke="none" target-height="15.541992" target-width="14.346985" target-x="592.21" target-y="349.094"/><path d="M 378.48 354.87 C 380.31 349.12 388.07 351.86 392.41 350.79 C 392.21 352.48 391.77 355.83 391.57 357.52 C 387.08 372.45 401.48 385.95 416.03 384.14 C 418.57 386.83 421.11 389.57 423.64 392.34 C 411.98 397.58 397.34 397.03 387.46 388.28 C 377.28 380.82 374.74 366.33 378.48 354.87 Z" fill="#f2b466" fill-rule="nonzero" node-id="150" stroke="none" target-height="48.462006" target-width="48.899017" target-x="374.744" target-y="349.123"/><path d="M 427.90 354.17 C 434.05 354.25 440.23 354.87 446.36 355.60 C 444.55 355.42 440.93 355.10 439.13 354.93 C 440.26 364.40 439.56 374.17 435.19 382.83 C 432.71 379.07 430.29 375.37 427.81 371.66 C 429.07 366.33 429.97 360.85 430.96 355.54 L 425.57 357.29 C 426.15 356.53 427.32 354.95 427.90 354.17 Z" fill="#dc9731" fill-rule="nonzero" node-id="152" stroke="none" target-height="28.662994" target-width="20.791016" target-x="425.567" target-y="354.168"/><path d="M 427.81 371.66 C 430.29 375.37 432.71 379.07 435.19 382.83 C 431.55 386.24 427.67 389.36 423.64 392.34 C 421.11 389.57 418.57 386.83 416.03 384.14 C 421.08 381.17 425.31 377.00 427.81 371.66 Z" fill="#e6a34b" fill-rule="nonzero" node-id="154" stroke="none" target-height="20.674011" target-width="19.157013" target-x="416.033" target-y="371.663"/><path d="M 473.30 389.95 C 489.28 386.53 505.78 386.21 521.73 389.92 C 519.55 399.39 509.92 403.42 503.07 409.10 C 500.88 408.78 496.54 408.14 494.35 407.82 C 485.29 404.99 475.95 399.71 473.30 389.95 Z M 480.21 394.46 C 490.07 400.30 503.71 398.66 514.09 394.64 C 502.81 393.91 491.50 393.94 480.21 394.46 Z" fill="#451d2e" fill-rule="nonzero" node-id="156" stroke="none" target-height="22.889984" target-width="48.432983" target-x="473.3" target-y="386.213"/><path d="M 318.67 399.83 C 332.38 394.84 346.90 400.41 359.90 405.05 C 361.33 410.79 364.54 418.06 358.41 422.31 C 343.86 433.25 323.57 427.74 310.45 417.09 C 310.16 410.30 311.67 402.72 318.67 399.83 Z" fill="#783c52" fill-rule="nonzero" node-id="158" stroke="none" target-height="38.403015" target-width="54.38098" target-x="310.157" target-y="394.844"/><path d="M 651.26 400.47 C 660.06 399.39 671.67 396.45 677.88 404.85 C 668.49 405.93 658.66 406.33 650.59 411.87 C 659.25 417.24 668.64 414.32 677.24 410.71 C 681.23 415.20 683.39 423.65 676.60 426.98 C 664.32 423.54 647.00 422.37 642.25 408.23 C 640.85 402.95 647.50 401.38 651.26 400.47 Z" fill="#7b3d5d" fill-rule="nonzero" node-id="160" stroke="none" target-height="30.528992" target-width="42.54303" target-x="640.847" target-y="396.448"/><path d="M 494.35 407.82 C 496.54 408.14 500.89 408.78 503.07 409.10 C 497.80 422.63 511.53 435.43 524.80 432.98 C 535.76 432.87 540.22 421.82 544.71 413.71 C 547.51 422.14 542.93 431.61 535.12 435.52 C 521.91 443.01 503.89 437.39 496.42 424.38 C 488.06 437.94 468.69 442.84 455.22 434.09 C 447.82 429.40 444.87 418.87 450.18 411.58 C 451.87 418.23 452.60 426.37 459.57 429.86 C 474.56 439.40 496.22 425.32 494.35 407.82 Z" fill="#32141e" fill-rule="nonzero" node-id="162" stroke="none" target-height="35.195007" target-width="102.639984" target-x="444.871" target-y="407.82"/><path d="M 632.83 413.94 C 640.93 418.38 653.04 423.45 655.14 432.84 C 647.00 434.85 637.87 433.07 632.30 426.48 C 628.48 423.01 631.87 417.85 632.83 413.94 Z" fill="#823d60" fill-rule="nonzero" node-id="164" stroke="none" target-height="20.907013" target-width="26.651978" target-x="628.484" target-y="413.943"/><path d="M 335.23 523.38 C 327.39 501.60 336.55 477.31 351.97 461.27 C 351.24 475.82 349.00 490.31 349.61 504.92 C 348.76 503.40 347.13 500.34 346.31 498.80 C 342.64 506.99 339.05 515.24 335.23 523.38 Z" fill="#ded7e1" fill-rule="nonzero" node-id="166" stroke="none" target-height="62.10901" target-width="24.580994" target-x="327.389" target-y="461.268"/><path d="M 664.09 480.63 C 667.41 486.96 669.86 493.75 671.38 500.78 C 676.57 540.32 647.03 572.77 618.48 595.69 C 625.10 580.12 633.97 564.84 634.67 547.52 C 635.13 542.39 635.19 537.23 635.34 532.18 C 648.14 517.05 659.92 500.37 664.09 480.63 Z" fill="#dad5e0" fill-rule="nonzero" node-id="168" stroke="none" target-height="115.060974" target-width="58.085022" target-x="618.482" target-y="480.63"/><path d="M 335.23 523.38 C 339.05 515.24 342.64 506.99 346.31 498.80 C 347.13 500.34 348.76 503.40 349.61 504.92 C 353.63 520.64 359.93 535.83 369.82 548.80 C 389.64 576.21 413.88 600.04 434.31 626.95 C 454.17 652.87 466.19 684.60 468.72 717.11 C 469.57 730.52 469.63 745.16 461.40 756.59 C 457.53 744.87 454.93 732.80 451.46 720.99 C 452.95 692.88 446.56 663.40 428.43 641.21 C 403.73 610.82 372.76 585.81 350.75 553.18 C 344.59 543.79 339.02 533.96 335.23 523.38 Z" fill="#d1c8d8" fill-rule="nonzero" node-id="170" stroke="none" target-height="257.793" target-width="134.39401" target-x="335.233" target-y="498.796"/><path d="M 223.64 530.64 C 223.00 524.84 232.89 524.78 234.84 529.18 C 239.56 536.91 240.91 546.09 243.27 554.69 C 239.39 555.01 235.48 555.31 231.57 555.54 C 227.64 547.78 224.02 539.38 223.64 530.64 Z" fill="#7fa56d" fill-rule="nonzero" node-id="172" stroke="none" target-height="30.763" target-width="20.265991" target-x="223.001" target-y="524.776"/><path d="M 581.48 594.47 C 597.66 572.22 616.91 552.51 635.34 532.18 C 635.19 537.23 635.13 542.39 634.66 547.52 C 627.23 579.83 604.19 605.14 584.22 630.45 C 567.05 650.63 558.04 676.26 552.03 701.60 C 544.39 711.19 538.21 721.80 531.68 732.15 C 534.21 696.58 551.18 664.53 561.51 630.94 C 567.75 614.09 570.92 596.16 578.88 579.95 C 579.76 584.73 580.63 589.57 581.48 594.47 Z" fill="#cfc8d6" fill-rule="nonzero" node-id="174" stroke="none" target-height="199.97101" target-width="103.65997" target-x="531.676" target-y="532.183"/><path d="M 210.43 536.29 C 211.92 535.91 214.87 535.22 216.35 534.87 C 224.46 543.90 229.24 555.22 234.58 566.01 C 235.22 566.33 236.56 567.00 237.23 567.32 C 243.44 576.85 244.08 588.43 244.00 599.48 C 241.28 596.19 238.63 592.86 236.12 589.48 C 226.35 573.09 216.06 556.85 208.80 539.21 L 210.43 536.29 Z" fill="#80a36f" fill-rule="nonzero" node-id="176" stroke="none" target-height="64.61603" target-width="35.281998" target-x="208.801" target-y="534.865"/><path d="M 657.35 581.17 C 670.85 572.36 678.58 557.64 691.18 547.84 C 692.08 557.20 692.81 566.62 693.07 576.10 C 668.96 595.60 641.40 610.21 612.74 621.88 C 612.86 618.41 614.17 615.63 616.65 613.59 C 629.62 602.02 643.03 591.00 657.35 581.17 Z" fill="#462939" fill-rule="nonzero" node-id="178" stroke="none" target-height="74.03497" target-width="80.33301" target-x="612.738" target-y="547.841"/><path d="M 250.38 583.07 C 249.56 571.78 245.48 556.24 256.77 548.83 C 262.89 555.68 264.55 564.90 266.68 573.56 C 264.99 574.35 261.64 575.89 259.98 576.68 C 256.48 578.31 253.53 580.82 250.38 583.07 Z" fill="#80b376" fill-rule="nonzero" node-id="180" stroke="none" target-height="34.233032" target-width="21.197998" target-x="245.483" target-y="548.832"/><path d="M 306.60 551.43 C 314.47 562.54 327.71 566.82 338.38 574.49 C 357.01 587.09 380.40 594.00 394.28 612.69 C 393.20 615.32 392.12 618.00 391.07 620.74 C 365.12 603.56 333.66 595.72 310.10 574.90 C 309.02 577.82 307.94 580.76 306.92 583.74 C 304.97 573.03 305.23 562.13 306.60 551.43 Z" fill="#452735" fill-rule="nonzero" node-id="182" stroke="none" target-height="69.310974" target-width="89.31299" target-x="304.967" target-y="551.427"/><path d="M 231.57 555.54 C 235.48 555.31 239.39 555.01 243.27 554.69 C 245.75 565.72 248.34 576.71 251.46 587.59 C 253.59 583.41 255.72 578.98 259.97 576.68 C 261.64 575.89 264.99 574.35 266.68 573.56 C 268.93 588.55 272.37 603.36 273.94 618.46 C 269.16 629.37 255.13 629.08 245.07 630.22 C 231.89 630.48 211.43 624.09 213.79 607.44 C 223.88 603.74 234.08 612.92 244.81 611.00 C 232.83 596.48 210.20 587.03 210.38 565.37 C 212.50 564.93 216.79 564.02 218.92 563.59 C 223.88 572.68 229.77 581.26 236.12 589.48 C 238.63 592.86 241.28 596.19 244.00 599.48 C 244.08 588.43 243.44 576.85 237.23 567.32 C 235.16 563.41 233.35 559.50 231.57 555.54 Z" fill="#6d986f" fill-rule="nonzero" node-id="184" stroke="none" target-height="75.784" target-width="63.741013" target-x="210.2" target-y="554.693"/><path d="M 310.10 574.90 C 333.66 595.72 365.12 603.56 391.07 620.74 C 413.44 636.89 432.10 660.45 436.91 688.18 C 439.42 703.49 441.05 719.41 437.76 734.75 C 435.71 745.25 428.54 755.10 417.96 758.13 C 414.78 748.95 411.28 739.88 406.38 731.48 C 406.06 739.79 406.03 748.10 405.97 756.47 C 390.64 755.10 384.05 738.98 378.30 726.90 C 370.69 706.32 364.48 684.68 350.98 666.98 C 346.23 660.80 340.28 655.29 332.67 653.05 C 336.46 663.25 342.93 672.14 347.48 682.03 C 353.46 694.89 358.36 708.24 363.17 721.60 L 362.38 722.12 C 356.23 726.24 349.78 730.02 342.58 731.98 C 335.44 733.52 328.21 734.54 321.03 735.83 C 319.05 733.64 317.21 731.42 315.49 729.12 C 305.84 703.96 296.16 677.66 297.47 650.28 C 298.23 631.38 300.88 612.66 303.98 594.06 C 304.68 590.53 305.75 587.06 306.92 583.74 C 307.94 580.76 309.02 577.82 310.10 574.90 Z" fill="#533745" fill-rule="nonzero" node-id="186" stroke="none" target-height="183.23499" target-width="144.88998" target-x="296.161" target-y="574.9"/><path d="M 612.74 621.88 C 641.40 610.21 668.96 595.60 693.07 576.10 C 696.08 588.28 701.00 599.89 705.29 611.70 C 709.02 644.76 703.60 678.38 692.90 709.73 C 690.56 715.85 688.76 722.44 684.70 727.75 C 676.48 729.27 668.11 729.97 659.86 731.16 C 652.39 729.21 646.42 724.16 640.79 719.18 L 640.32 718.80 C 645.86 706.14 648.52 692.50 654.14 679.90 C 659.01 668.44 666.04 658.09 671.35 646.87 C 666.04 647.77 660.50 649.25 657.24 653.98 C 634.17 678.79 631.90 714.69 614.87 742.94 C 609.76 749.39 600.64 755.72 592.15 752.86 C 588.86 746.00 587.37 738.48 585.12 731.31 C 582.85 737.58 581.22 744.05 580.08 750.67 C 568.86 741.08 563.37 725.91 564.74 711.36 C 566.11 694.31 571.71 677.95 577.72 662.06 C 583.78 644.85 597.66 631.47 612.74 621.88 Z" fill="#533746" fill-rule="nonzero" node-id="188" stroke="none" target-height="179.61902" target-width="145.64801" target-x="563.373" target-y="576.096"/><path d="M 295.34 604.38 C 297.27 600.21 300.59 597.00 303.98 594.06 C 300.88 612.66 298.23 631.38 297.47 650.28 C 296.16 677.66 305.84 703.96 315.49 729.12 C 286.83 717.95 268.43 682.99 277.85 653.28 C 281.64 636.34 287.50 619.86 295.34 604.38 Z" fill="#462938" fill-rule="nonzero" node-id="190" stroke="none" target-height="135.06403" target-width="47.06302" target-x="268.43" target-y="594.058"/><path d="M 705.29 611.70 C 716.98 621.90 721.73 638.32 724.01 653.25 C 728.82 683.92 712.20 715.65 686.71 732.42 C 680.21 733.50 673.56 733.64 666.97 733.26 C 665.19 732.74 661.64 731.69 659.86 731.16 C 668.11 729.97 676.48 729.27 684.70 727.75 C 688.75 722.44 690.56 715.85 692.89 709.73 C 703.60 678.38 709.02 644.76 705.29 611.70 Z" fill="#452637" fill-rule="nonzero" node-id="192" stroke="none" target-height="121.94202" target-width="68.961" target-x="659.858" target-y="611.699"/><path d="M 756.20 738.16 C 759.67 724.43 756.40 706.99 769.79 697.80 C 772.21 700.17 774.54 702.67 776.79 705.33 C 775.85 715.15 772.47 724.51 770.08 734.08 C 774.57 730.38 780.37 721.02 786.64 726.79 C 791.98 729.56 786.93 734.72 784.51 737.55 C 778.01 744.75 771.68 752.25 767.43 761.08 C 773.46 757.35 779.50 753.18 786.76 752.39 C 790.05 767.44 772.47 773.74 765.53 784.52 C 758.59 783.47 751.62 782.69 744.65 781.87 C 749.84 767.67 753.23 752.94 756.20 738.16 Z" fill="#739773" fill-rule="nonzero" node-id="194" stroke="none" target-height="86.71802" target-width="47.325012" target-x="744.653" target-y="697.805"/><path d="M 640.79 719.18 C 646.42 724.16 652.39 729.21 659.86 731.16 C 661.64 731.69 665.20 732.74 666.97 733.26 C 660.94 745.54 655.89 758.66 647.20 769.45 C 640.76 777.55 629.07 778.43 619.56 776.83 C 610.46 774.38 601.57 770.41 591.92 771.14 C 592.97 767.99 595.04 766.36 598.13 766.18 C 611.13 764.84 623.00 757.20 630.26 746.44 C 635.66 738.19 638.02 728.48 640.79 719.18 Z" fill="#f5f4f7" fill-rule="nonzero" node-id="196" stroke="none" target-height="59.25" target-width="75.05499" target-x="591.919" target-y="719.179"/><path d="M 342.58 731.98 C 349.78 730.03 356.23 726.24 362.38 722.12 C 368.18 738.69 374.95 756.59 390.20 766.79 C 387.08 771.78 384.13 776.88 381.39 782.13 C 375.62 779.48 369.50 776.80 365.73 771.43 C 356.46 759.27 348.09 746.30 342.58 731.98 Z" fill="#f2f1f4" fill-rule="nonzero" node-id="198" stroke="none" target-height="60.01001" target-width="47.615997" target-x="342.582" target-y="722.123"/><path d="M 220.84 739.21 C 217.58 735.54 221.86 731.57 224.37 729.27 C 237.23 738.10 244.99 751.98 253.44 764.70 C 254.75 770.82 255.95 777.03 257.15 783.24 C 251.84 784.09 246.50 784.90 241.22 785.95 C 234.26 776.07 218.07 768.19 221.19 754.26 C 229.33 756.56 235.83 762.19 242.83 766.74 C 235.83 757.26 227.32 749.01 220.84 739.21 Z" fill="#77a073" fill-rule="nonzero" node-id="200" stroke="none" target-height="56.68402" target-width="39.569" target-x="217.577" target-y="729.268"/><path d="M 321.03 735.83 C 328.21 734.54 335.44 733.52 342.58 731.98 C 348.09 746.30 356.46 759.27 365.73 771.43 C 369.50 776.80 375.62 779.48 381.39 782.13 C 382.12 784.35 382.82 786.62 383.49 788.96 C 382.70 797.79 382.68 806.80 380.63 815.46 C 378.88 820.21 372.94 817.41 369.20 818.09 C 367.07 808.08 367.86 797.00 362.06 788.20 C 361.33 798.11 361.77 808.08 360.78 818.00 C 352.23 817.68 344.97 811.85 342.90 803.53 C 336.34 780.76 332.11 757.00 321.03 735.83 Z" fill="#d4cdd9" fill-rule="nonzero" node-id="202" stroke="none" target-height="88.234985" target-width="62.458008" target-x="321.033" target-y="731.979"/><path d="M 666.97 733.26 C 673.56 733.64 680.21 733.50 686.72 732.42 C 679.19 748.77 671.79 765.31 666.54 782.60 C 662.92 793.13 660.33 804.35 654.00 813.74 C 651.35 818.23 645.69 818.14 641.26 819.51 C 639.86 809.72 639.51 799.83 638.87 790.00 C 632.42 796.30 635.69 806.77 633.65 814.94 C 633.62 819.89 625.68 819.81 623.03 817.33 C 618.83 809.54 618.54 800.44 616.47 792.05 C 611.16 800.53 614.87 811.23 614.90 820.62 C 593.14 815.72 589.70 789.65 591.92 771.14 C 601.57 770.41 610.46 774.38 619.56 776.83 C 629.07 778.43 640.76 777.55 647.21 769.45 C 655.89 758.66 660.94 745.54 666.97 733.26 Z" fill="#d4cdd8" fill-rule="nonzero" node-id="204" stroke="none" target-height="88.20502" target-width="97.012024" target-x="589.703" target-y="732.417"/><path d="M 422.39 767.52 C 424.84 766.50 427.32 765.51 429.82 764.61 C 435.80 771.23 442.98 777.12 451.90 779.13 C 493.10 790.44 539.14 791.43 578.30 772.48 C 576.29 786.24 576.76 800.82 583.17 813.45 C 529.14 819.92 474.47 819.11 420.29 815.08 C 426.36 799.95 426.79 783.12 422.39 767.52 Z" fill="#d6cee0" fill-rule="nonzero" node-id="206" stroke="none" target-height="55.315002" target-width="162.88101" target-x="420.29" target-y="764.608"/><path d="M 390.20 766.79 C 396.67 768.69 403.20 770.35 409.79 771.90 C 411.60 785.87 411.89 801.61 402.88 813.39 C 399.62 817.71 393.81 817.88 389.06 819.51 C 388.27 809.13 386.79 798.81 383.49 788.96 C 382.82 786.62 382.12 784.35 381.39 782.13 C 384.13 776.88 387.08 771.78 390.20 766.79 Z" fill="#dad6e2" fill-rule="nonzero" node-id="208" stroke="none" target-height="52.718994" target-width="30.5" target-x="381.392" target-y="766.795"/><path d="M 451.26 879.32 C 452.33 879.58 454.49 880.13 455.57 880.40 C 455.92 886.11 455.25 891.89 456.83 897.57 C 464.41 896.64 460.44 886.55 461.84 881.42 C 468.08 880.75 474.38 880.37 480.65 881.21 C 480.50 884.33 487.18 892.67 479.45 890.57 C 479.37 893.11 479.16 898.21 479.07 900.75 C 472.22 897.37 475.14 889.26 474.12 883.43 C 460.85 879.67 469.83 899.88 458.20 898.59 C 451.14 898.10 442.39 901.51 437.03 895.30 C 434.05 889.87 434.72 882.41 439.91 878.62 C 440.79 883.78 436.76 892.76 443.50 895.36 C 453.38 896.84 450.59 885.38 451.26 879.32 Z" fill="#2f211d" fill-rule="nonzero" node-id="210" stroke="none" target-height="22.889954" target-width="53.126984" target-x="434.053" target-y="878.619"/></svg>